<svg width="40" height="40" viewBox="0 0 40 40" fill="none" xmlns="http://www.w3.org/2000/svg">
<rect width="40" height="40" fill="white"/>
<path d="M3.3335 33.3332V24.4998C3.3335 23.2034 3.75016 22.1386 4.5835 21.3053C5.41683 20.4719 6.48169 20.0553 7.77808 20.0553H10.0556V6.6665H29.9447V20.0553H32.2223C33.5186 20.0553 34.5835 20.4719 35.4168 21.3053C36.2502 22.1386 36.6668 23.2034 36.6668 24.4998V33.3332H3.3335ZM12.8335 20.0553H27.1668V9.44442H12.8335V20.0553ZM6.11141 30.5553H33.8889V24.4998C33.8889 23.9721 33.7431 23.5623 33.4514 23.2707C33.1598 22.979 32.75 22.8332 32.2223 22.8332H7.77808C7.2503 22.8332 6.84058 22.979 6.54891 23.2707C6.25725 23.5623 6.11141 23.9721 6.11141 24.4998V30.5553ZM30.5327 27.1386C30.9277 27.1386 31.2571 27.0051 31.521 26.7382C31.7849 26.4709 31.9168 26.1398 31.9168 25.7448C31.9168 25.3501 31.7832 25.0208 31.516 24.7569C31.2491 24.493 30.9181 24.3611 30.5231 24.3611C30.1281 24.3611 29.7986 24.4946 29.5347 24.7615C29.2709 25.0287 29.1389 25.3598 29.1389 25.7548C29.1389 26.1496 29.2725 26.4789 29.5397 26.7428C29.807 27.0066 30.1379 27.1386 30.5327 27.1386Z" fill="#1F4F82"/>
</svg>
