<svg width="150" height="25" viewBox="0 0 150 25" fill="none" xmlns="http://www.w3.org/2000/svg">
<g clip-path="url(#clip0_4032_9487)">
<path d="M2.99664 6.88531C3.1974 6.88532 3.33911 6.84508 3.42178 6.76459C3.50445 6.68413 3.54578 6.54616 3.54578 6.3507V2.98783C3.54578 2.67743 3.66388 2.41875 3.90007 2.21179C4.13626 2.00486 4.44331 1.90139 4.82122 1.90137C5.19912 1.90139 5.51502 2.00774 5.76893 2.22041C6.02283 2.43312 6.14978 2.68893 6.14979 2.98783V6.24722C6.14978 6.53467 6.17931 6.71287 6.23836 6.78183C6.2974 6.85083 6.43912 6.88532 6.6635 6.88531H10.2949C10.7319 6.88532 11.0714 6.98592 11.3135 7.1871C11.5556 7.38831 11.6766 7.67286 11.6767 8.04075C11.6766 8.45466 11.5467 8.75933 11.2869 8.95476C11.0271 9.15022 10.6374 9.24795 10.1178 9.24793H6.6635C6.47455 9.24795 6.34169 9.3198 6.26493 9.4635C6.18816 9.60723 6.14978 9.86304 6.14979 10.2309V17.6465C6.14978 19.6125 6.32693 20.8656 6.68122 21.406C7.0355 21.9463 7.67321 22.2165 8.59436 22.2165C9.3856 22.2165 9.99969 21.9578 10.4367 21.4405C10.8736 20.9231 11.0921 20.1873 11.0921 19.2331C11.0921 19.0376 11.0803 18.7387 11.0567 18.3363C11.033 17.9339 11.0212 17.635 11.0212 17.4395C11.0212 16.8992 11.1245 16.4882 11.3312 16.2065C11.5379 15.9248 11.842 15.784 12.2435 15.784C12.7867 15.784 13.1706 15.9593 13.3949 16.31C13.6193 16.6606 13.7315 17.2843 13.7315 18.1811C13.7315 20.262 13.2709 21.8544 12.3498 22.9581C11.4286 24.0618 10.0883 24.6136 8.32865 24.6136C6.58083 24.6136 5.32902 24.1796 4.57321 23.3116C3.8174 22.4436 3.4395 20.9806 3.4395 18.9226V10.2309C3.4395 9.79405 3.40111 9.521 3.32435 9.41177C3.24759 9.30256 3.11473 9.24795 2.92578 9.24793H1.54407C1.11892 9.24795 0.808921 9.1531 0.614063 8.96338C0.419206 8.7737 0.321778 8.47765 0.321777 8.07524C0.321778 7.66137 0.425111 7.35957 0.631778 7.16986C0.838445 6.98017 1.16616 6.88532 1.61492 6.88531H2.99664Z" fill="black"/>
<path d="M17.8645 6.14377C17.8645 4.39625 17.7307 3.34716 17.4631 2.99648C17.1954 2.64584 16.6517 2.47051 15.8317 2.47049H14.7555C14.3 2.47051 13.9754 2.39578 13.7819 2.2463C13.5883 2.09686 13.4915 1.84968 13.4915 1.50475C13.4915 1.14836 13.6082 0.872435 13.8416 0.676964C14.0751 0.481539 14.4139 0.383814 14.858 0.38379C14.8808 0.383814 15.0829 0.401061 15.4644 0.435527C15.8459 0.470041 16.2246 0.487287 16.6004 0.487263C17.4203 0.487287 18.2403 0.458545 19.0602 0.401036C19.2083 0.389562 19.2994 0.383816 19.3336 0.383789C19.7663 0.383813 20.0595 0.472914 20.2133 0.651094C20.367 0.82932 20.4439 1.25758 20.4439 1.93588V9.35143C21.1955 8.3857 22.0297 7.67863 22.9464 7.23024C23.8632 6.78187 24.9194 6.55768 26.1152 6.55766C28.4839 6.55768 30.1949 7.1469 31.2484 8.32532C32.3017 9.50378 32.8284 11.4094 32.8285 14.0422V19.6297C32.8284 20.7104 32.9338 21.3859 33.1445 21.6561C33.3551 21.9262 33.8021 22.0613 34.4854 22.0613C34.6221 22.0613 34.7901 22.0441 34.9894 22.0096C35.1886 21.9751 35.3224 21.9579 35.3908 21.9579C35.8691 21.9579 36.2335 22.0585 36.484 22.2597C36.7346 22.4609 36.8598 22.7627 36.8599 23.165C36.8598 23.5444 36.7545 23.8146 36.5438 23.9756C36.3331 24.1365 35.9829 24.217 35.4933 24.217C35.368 24.217 34.8897 24.171 34.0584 24.0791C33.227 23.9871 32.4583 23.9411 31.7523 23.9411C30.9096 23.9411 30.0327 23.9871 29.1216 24.0791C28.2106 24.171 27.7209 24.217 27.6526 24.217C27.254 24.217 26.9465 24.1222 26.7301 23.9325C26.5137 23.7428 26.4056 23.4755 26.4056 23.1306C26.4056 22.7282 26.5166 22.4321 26.7387 22.2424C26.9607 22.0527 27.2995 21.9579 27.7551 21.9579C27.96 21.9579 28.1992 21.9751 28.4725 22.0096C28.7458 22.0441 28.9166 22.0613 28.985 22.0613C29.4633 22.0613 29.7821 21.9291 29.9416 21.6647C30.101 21.4003 30.1807 20.7219 30.1807 19.6297V14.6113C30.1807 12.4844 29.8334 10.9696 29.1387 10.0671C28.444 9.16462 27.2995 8.71336 25.7052 8.71335C23.8831 8.71336 22.5507 9.3457 21.708 10.6103C20.8653 11.875 20.4439 13.8812 20.4439 16.629V19.6297C20.4439 20.7219 20.5236 21.4003 20.683 21.6647C20.8425 21.9291 21.1613 22.0613 21.6396 22.0613C21.708 22.0613 21.8816 22.0441 22.1607 22.0096C22.4397 21.9751 22.676 21.9579 22.8696 21.9579C23.3251 21.9579 23.661 22.0527 23.8774 22.2424C24.0938 22.4321 24.202 22.7282 24.202 23.1306C24.202 23.487 24.0966 23.7571 23.886 23.9411C23.6753 24.125 23.3706 24.217 22.9721 24.217C22.9037 24.217 22.414 24.171 21.503 24.0791C20.5919 23.9871 19.7151 23.9411 18.8723 23.9411C18.1777 23.9411 17.4118 23.9871 16.5748 24.0791C15.7378 24.171 15.2566 24.217 15.1313 24.217C14.6417 24.217 14.2915 24.1365 14.0808 23.9756C13.8701 23.8146 13.7648 23.5444 13.7648 23.165C13.7648 22.7627 13.8843 22.4609 14.1235 22.2597C14.3626 22.0585 14.7214 21.9579 15.1997 21.9579C15.3249 21.9579 15.4986 21.9751 15.7207 22.0096C15.9427 22.0441 16.0993 22.0613 16.1904 22.0613C16.8623 22.0613 17.3093 21.9406 17.5314 21.6992C17.7535 21.4577 17.8645 20.7679 17.8645 19.6297V6.14377Z" fill="black"/>
<path d="M44.5471 6.31665C42.1268 6.31667 40.2063 7.13928 38.785 8.78908C37.3637 10.4389 36.6575 12.6589 36.6575 15.4527C36.6575 18.2579 37.3637 20.4849 38.785 22.1347C40.2063 23.7845 42.1268 24.6163 44.5471 24.6163C45.9056 24.6163 47.0775 24.3914 48.0536 23.9545C49.0296 23.5176 49.8673 22.843 50.5751 21.9233C51.0317 21.3139 51.3944 20.7001 51.6684 20.085C51.9424 19.4699 52.0821 18.9548 52.0821 18.5409C52.0821 18.1845 51.9656 17.8943 51.7373 17.6586C51.509 17.4229 51.2229 17.3001 50.8804 17.3001C50.3438 17.3001 49.9046 17.7728 49.5507 18.7155C49.3224 19.3479 49.1061 19.8206 48.9006 20.131C48.3641 20.9013 47.7644 21.4589 47.108 21.8038C46.4515 22.1487 45.6439 22.3185 44.685 22.3185C43.1095 22.3185 41.8461 21.7357 40.8928 20.563C39.9396 19.3903 39.4646 17.8277 39.4646 15.8847V15.7836H49.9447H50.5455C51.2076 15.7836 51.6469 15.6734 51.8752 15.4435C52.1035 15.2136 52.22 14.7523 52.22 14.074C52.22 11.7171 51.5246 9.83901 50.1318 8.43062C48.7391 7.02226 46.876 6.31667 44.5471 6.31665ZM44.5865 8.57768C45.9906 8.5777 47.1211 9.00907 47.9945 9.88283C48.8678 10.7566 49.3044 11.8993 49.3045 13.3019V13.5225H39.6321C39.7805 11.9934 40.3036 10.7865 41.1883 9.90121C42.0731 9.01596 43.2051 8.57769 44.5865 8.57768Z" fill="black"/>
<path d="M71.9186 6.35339C69.4252 6.35341 67.4486 7.16914 65.9888 8.80744C64.529 10.4458 63.8008 12.6589 63.8008 15.4527C63.8008 18.2464 64.529 20.4791 65.9888 22.1346C67.4486 23.7902 69.4189 24.6163 71.891 24.6163C74.4376 24.6163 76.4398 23.7948 77.8943 22.1622C79.3487 20.5297 80.0731 18.2924 80.0731 15.4527C80.0731 12.6359 79.3487 10.4159 77.8943 8.78906C76.4398 7.16225 74.4439 6.35341 71.9186 6.35339ZM71.9553 8.61442C73.6815 8.61444 75.0385 9.21792 76.0188 10.4251C76.9991 11.6323 77.4897 13.3027 77.4898 15.4527C77.4897 17.5796 76.9952 19.2489 76.0096 20.4619C75.024 21.6748 73.6709 22.2817 71.9553 22.2817C70.1759 22.2817 68.801 21.692 67.8367 20.5078C66.8724 19.3236 66.3933 17.6371 66.3933 15.4527C66.3933 13.3142 66.8878 11.638 67.8735 10.4251C68.8591 9.21217 70.2185 8.61444 71.9553 8.61442Z" fill="black"/>
<path d="M85.2428 9.07706C84.6236 9.08858 83.9786 9.1087 83.3078 9.13742C82.637 9.16618 82.2729 9.18055 82.2155 9.18054C81.8257 9.18055 81.539 9.10007 81.3555 8.9391C81.1721 8.77816 81.0803 8.52522 81.0803 8.1803C81.0803 7.83541 81.2036 7.56235 81.4501 7.36114C81.6967 7.15996 82.0321 7.05936 82.4564 7.05934C82.5022 7.05936 82.7832 7.07661 83.2992 7.11108C83.8152 7.14559 84.3083 7.16283 84.7784 7.16282H85.2428C85.2428 7.08236 85.2371 6.96451 85.2256 6.80929C85.2142 6.6541 85.2084 6.53625 85.2084 6.45575C85.2084 4.51278 85.7015 3.0383 86.6877 2.03229C87.6738 1.02633 89.1187 0.523339 91.0222 0.523315C92.3409 0.523339 93.3987 0.813637 94.1957 1.39421C94.9926 1.97483 95.3911 2.74225 95.3911 3.69648C95.3911 4.21386 95.2477 4.62775 94.9611 4.93815C94.6744 5.24859 94.2902 5.4038 93.8086 5.40378C93.3041 5.4038 92.9056 5.28883 92.6132 5.05887C92.3208 4.82895 92.1746 4.51853 92.1746 4.12762C92.1746 3.98967 92.2004 3.7971 92.252 3.54989C92.3036 3.30273 92.3294 3.1274 92.3294 3.02391C92.3294 2.86297 92.2205 2.74225 92.0026 2.66175C91.7847 2.5813 91.4464 2.54106 90.9878 2.54103C89.9443 2.54106 89.1531 2.85722 88.6141 3.48954C88.0752 4.12189 87.8057 5.05314 87.8057 6.2833C87.8057 6.51326 87.8087 6.68859 87.8143 6.80929C87.82 6.93002 87.8344 7.04787 87.8573 7.16282C88.6256 7.16284 89.4283 7.13409 90.2654 7.07659C90.4603 7.06511 90.5807 7.05936 90.6266 7.05935C91.0967 7.05936 91.4608 7.15421 91.7188 7.3439C91.9768 7.53361 92.1058 7.80092 92.1058 8.14581C92.1058 8.49074 92.0055 8.74942 91.8048 8.92186C91.6041 9.09433 91.2974 9.18055 90.8846 9.18054C90.8387 9.18055 90.7183 9.17481 90.5234 9.16329C89.629 9.10582 88.7632 9.07708 87.9261 9.07707V19.7348C87.9261 20.8155 88.0121 21.4909 88.1841 21.7611C88.3561 22.0313 88.7116 22.1664 89.2505 22.1664C89.2964 22.1664 89.4741 22.1491 89.7838 22.1146C90.0934 22.0801 90.3743 22.0629 90.6266 22.0629C91.1426 22.0629 91.5181 22.1578 91.7532 22.3474C91.9883 22.5372 92.1058 22.8332 92.1058 23.2356C92.1058 23.592 91.9911 23.8622 91.7618 24.0461C91.5325 24.2301 91.1999 24.3221 90.7642 24.3221C90.6839 24.3221 90.1507 24.2761 89.1645 24.1841C88.1784 24.0921 87.2324 24.0461 86.3265 24.0461C85.5582 24.0461 84.7498 24.0921 83.9012 24.1841C83.0527 24.2761 82.5825 24.3221 82.4908 24.3221C81.9977 24.3221 81.6394 24.2387 81.4158 24.072C81.1922 23.9053 81.0804 23.638 81.0804 23.2701C81.0804 22.8677 81.2065 22.5659 81.4588 22.3647C81.711 22.1635 82.078 22.0629 82.5596 22.0629C82.6857 22.0629 82.8606 22.0801 83.0842 22.1146C83.3078 22.1491 83.4655 22.1664 83.5572 22.1664C84.2338 22.1664 84.6838 22.0457 84.9074 21.8042C85.131 21.5628 85.2428 20.873 85.2428 19.7348L85.2428 9.07706Z" fill="black"/>
<path d="M97.9253 9.07706C97.3107 9.08858 96.6705 9.1087 96.0047 9.13742C95.3389 9.16618 94.9776 9.18055 94.9207 9.18054C94.5337 9.18055 94.2492 9.10007 94.0671 8.9391C93.885 8.77816 93.7939 8.52522 93.7939 8.1803C93.7939 7.83541 93.9163 7.56235 94.161 7.36114C94.4057 7.15996 94.7386 7.05936 95.1597 7.05934C95.2052 7.05936 95.484 7.07661 95.9962 7.11108C96.5083 7.14559 96.9977 7.16283 97.4643 7.16282H97.9253C97.9253 7.08236 97.9196 6.96451 97.9082 6.80929C97.8968 6.6541 97.8911 6.53625 97.8911 6.45575C97.8911 4.51278 98.3805 3.0383 99.3593 2.03229C100.338 1.02633 101.772 0.523339 103.661 0.523315C104.97 0.523339 106.02 0.813637 106.811 1.39421C107.602 1.97483 107.998 2.74225 107.998 3.69648C107.998 4.21386 107.855 4.62775 107.571 4.93815C107.286 5.24859 106.905 5.4038 106.427 5.40378C105.926 5.4038 105.531 5.28883 105.24 5.05887C104.95 4.82895 104.805 4.51853 104.805 4.12762C104.805 3.98967 104.831 3.7971 104.882 3.54989C104.933 3.30273 104.959 3.1274 104.959 3.02391C104.959 2.86297 104.851 2.74225 104.634 2.66175C104.418 2.5813 104.082 2.54106 103.627 2.54103C102.592 2.54106 101.806 2.85722 101.271 3.48954C100.736 4.12189 100.469 5.05314 100.469 6.2833C100.469 6.51326 100.472 6.68859 100.478 6.80929C100.483 6.93002 100.497 7.04787 100.52 7.16282C101.283 7.16284 102.079 7.13409 102.91 7.07659C103.104 7.06511 103.223 7.05936 103.269 7.05935C103.735 7.05936 104.097 7.15421 104.353 7.3439C104.609 7.53361 104.737 7.80092 104.737 8.14581C104.737 8.49074 104.637 8.74942 104.438 8.92186C104.239 9.09433 103.935 9.18055 103.525 9.18054C103.479 9.18055 103.36 9.17481 103.166 9.16329C102.279 9.10582 101.419 9.07708 100.588 9.07707V19.7348C100.588 20.8155 100.674 21.4909 100.845 21.7611C101.015 22.0313 101.368 22.1664 101.903 22.1664C101.949 22.1664 102.125 22.1491 102.432 22.1146C102.739 22.0801 103.018 22.0629 103.269 22.0629C103.781 22.0629 104.154 22.1578 104.387 22.3474C104.62 22.5372 104.737 22.8332 104.737 23.2356C104.737 23.592 104.623 23.8622 104.395 24.0461C104.168 24.2301 103.838 24.3221 103.405 24.3221C103.326 24.3221 102.796 24.2761 101.818 24.1841C100.839 24.0921 99.8999 24.0461 99.0008 24.0461C98.2383 24.0461 97.4359 24.0921 96.5937 24.1841C95.7515 24.2761 95.2849 24.3221 95.1938 24.3221C94.7045 24.3221 94.3488 24.2387 94.1269 24.072C93.9049 23.9053 93.794 23.638 93.794 23.2701C93.794 22.8677 93.9192 22.5659 94.1695 22.3647C94.4199 22.1635 94.7841 22.0629 95.2621 22.0629C95.3873 22.0629 95.5609 22.0801 95.7828 22.1146C96.0047 22.1491 96.1612 22.1664 96.2523 22.1664C96.9238 22.1664 97.3705 22.0457 97.5924 21.8042C97.8143 21.5628 97.9253 20.873 97.9253 19.7348L97.9253 9.07706Z" fill="black"/>
<path d="M110.843 19.7348V12.6987C110.843 11.0776 110.734 10.0688 110.517 9.67209C110.3 9.27546 109.854 9.07714 109.181 9.07712H107.974C107.572 9.07714 107.295 9.00241 107.143 8.85293C106.991 8.70349 106.915 8.44481 106.915 8.07689C106.915 7.76649 107.026 7.50206 107.249 7.2836C107.472 7.06517 107.746 6.95595 108.072 6.95593C108.137 6.95595 108.385 6.97319 108.814 7.00767C109.243 7.04218 109.642 7.05942 110.012 7.05941C110.631 7.05942 111.278 7.03068 111.951 6.97318C112.114 6.9617 112.212 6.95595 112.245 6.95593C112.701 6.95595 113.005 7.04218 113.158 7.21462C113.31 7.38709 113.386 7.78373 113.386 8.40455V19.7348C113.386 20.7925 113.486 21.468 113.687 21.7612C113.888 22.0543 114.309 22.2009 114.95 22.2009C115.092 22.2009 115.255 22.1837 115.439 22.1492C115.624 22.1147 115.754 22.0975 115.831 22.0974C116.298 22.0975 116.648 22.1952 116.882 22.3906C117.115 22.5861 117.232 22.8792 117.232 23.2701C117.232 23.6495 117.132 23.9197 116.931 24.0807C116.73 24.2416 116.396 24.3221 115.928 24.3221C115.798 24.3221 115.342 24.2761 114.559 24.1841C113.777 24.0922 113.065 24.0462 112.424 24.0462C111.218 24.0462 109.996 24.1209 108.757 24.2704C108.485 24.3049 108.317 24.3221 108.252 24.3221C107.773 24.3221 107.431 24.2388 107.225 24.0721C107.018 23.9053 106.915 23.638 106.915 23.2701C106.915 22.8792 107.032 22.5861 107.265 22.3906C107.499 22.1952 107.85 22.0975 108.317 22.0974C108.425 22.0975 108.583 22.1147 108.789 22.1492C108.996 22.1837 109.148 22.2009 109.246 22.2009C109.909 22.2009 110.341 22.0601 110.542 21.7784C110.743 21.4967 110.843 20.8155 110.843 19.7348Z" fill="black"/>
<path d="M109.635 3.34845C109.635 2.80811 109.819 2.35398 110.188 1.98606C110.556 1.61818 111.012 1.43423 111.553 1.4342C112.072 1.43423 112.507 1.61818 112.858 1.98606C113.21 2.35398 113.386 2.80811 113.386 3.34845C113.386 3.86583 113.207 4.30847 112.85 4.67635C112.493 5.04427 112.06 5.22823 111.553 5.22821C111.012 5.22823 110.556 5.04715 110.188 4.68497C109.819 4.32284 109.635 3.87733 109.635 3.34845Z" fill="black"/>
<path d="M116.845 15.4563C116.845 12.6051 117.566 10.3632 119.007 8.73059C120.449 7.09804 122.425 6.28176 124.937 6.28174C126.964 6.28176 128.599 6.76175 129.844 7.72173C131.088 8.68175 131.71 9.93204 131.71 11.4726C131.71 12.3694 131.46 13.0822 130.959 13.6111C130.458 14.1399 129.779 14.4044 128.923 14.4044C128.338 14.4044 127.884 14.2693 127.563 13.9991C127.242 13.7289 127.082 13.3466 127.082 12.8523C127.082 12.5189 127.166 12.2142 127.335 11.9383C127.504 11.6623 127.741 11.4381 128.045 11.2657C128.101 11.2312 128.186 11.1967 128.298 11.1622C128.546 11.0587 128.67 10.9035 128.67 10.6966C128.67 10.1447 128.326 9.64749 127.639 9.20484C126.952 8.76223 126.13 8.54091 125.173 8.54089C123.394 8.54091 122.011 9.17037 121.026 10.4293C120.041 11.6882 119.548 13.4616 119.548 15.7495C119.548 17.75 120.024 19.3567 120.975 20.5696C121.927 21.7825 123.18 22.389 124.734 22.389C125.781 22.389 126.648 22.1677 127.335 21.7251C128.022 21.2824 128.585 20.5782 129.025 19.6125C129.126 19.394 129.255 19.0491 129.413 18.5778C129.796 17.4855 130.275 16.9394 130.849 16.9394C131.209 16.9394 131.508 17.0573 131.744 17.293C131.981 17.5287 132.099 17.8247 132.099 18.1811C132.099 18.71 131.961 19.3337 131.685 20.0522C131.409 20.7708 131.052 21.4175 130.612 21.9924C129.937 22.8546 129.098 23.5071 128.095 23.9497C127.093 24.3924 125.939 24.6137 124.633 24.6137C122.234 24.6137 120.336 23.7916 118.94 22.1476C117.543 20.5035 116.845 18.2731 116.845 15.4563Z" fill="black"/>
<path d="M141.847 6.42163C139.377 6.42165 137.417 7.23954 135.966 8.87987C134.515 10.5202 133.794 12.7275 133.794 15.5052C133.794 18.2944 134.515 20.5085 135.966 22.1488C137.417 23.7892 139.377 24.6162 141.847 24.6162C143.234 24.6162 144.43 24.3926 145.426 23.9583C146.422 23.5239 147.277 22.8531 147.999 21.9387C148.466 21.3328 148.836 20.7225 149.115 20.111C149.395 19.4994 149.538 18.9872 149.538 18.5757C149.538 18.2214 149.419 17.9328 149.186 17.6984C148.953 17.4641 148.661 17.342 148.311 17.342C147.763 17.342 147.315 17.812 146.954 18.7494C146.721 19.3781 146.5 19.848 146.29 20.1567C145.743 20.9226 145.131 21.4769 144.461 21.8199C143.791 22.1628 142.966 22.3316 141.988 22.3316C140.38 22.3316 139.09 21.7521 138.117 20.5862C137.144 19.4202 136.66 17.8666 136.66 15.9347V15.8342H147.356H147.969C148.645 15.8342 149.093 15.7247 149.327 15.4961C149.56 15.2675 149.678 14.8089 149.678 14.1345C149.678 11.7911 148.969 9.92378 147.547 8.52347C146.126 7.12319 144.224 6.42165 141.847 6.42163ZM141.887 8.66968C143.32 8.6697 144.474 9.0986 145.366 9.96734C146.257 10.8361 146.703 11.9723 146.703 13.3668V13.5862H136.83C136.982 12.0658 137.516 10.8658 138.419 9.98561C139.322 9.10544 140.477 8.6697 141.887 8.66968Z" fill="black"/>
</g>
<defs>
<clipPath id="clip0_4032_9487">
<rect width="150" height="25" fill="white"/>
</clipPath>
</defs>
</svg>
